<?xml version="1.0" encoding="UTF-8"?>
<!-- Generator: visioncortex VTracer 0.6.3 -->
<svg version="1.1" xmlns="http://www.w3.org/2000/svg" width="1280" height="1280">
<path d="M0 0 C4.3 2.13 6.88 5.26 8.88 9.56 C14.88 27.9 11.04 49.56 4 67 C3.64 67.89 3.29 68.78 2.92 69.7 C-0.14 77.22 -3.62 84.43 -7.38 91.62 C-7.91 92.68 -8.45 93.73 -9.01 94.82 C-13.02 102.53 -17.61 109.54 -22.87 116.46 C-25.58 120.05 -27.48 122.69 -27.12 127.31 C-25.7 132.04 -25.7 132.04 -22 135 C-15.27 135.77 -10.19 134.47 -4.82 130.31 C-0.87 127.1 -0.87 127.1 2 123 C2.02 120.64 1.99 118.3 1.94 115.94 C1.66 81.62 5.61 32.07 31 6 C37.75 0.86 43.55 -0.72 52 0 C57.82 2.01 59.41 4.98 62.17 10.23 C70.26 29.27 63.21 52.42 55.96 70.69 C49.78 85.56 42.45 99.86 33.18 113.04 C32.48 114.05 32.48 114.05 31.76 115.08 C30.86 116.37 29.95 117.64 29.01 118.9 C26.89 121.92 25.98 123.55 26.17 127.29 C26.93 129.76 27.57 131.85 29 134 C34.46 135.82 39.09 135.71 44.25 133.25 C48.71 130.78 48.71 130.78 52 127 C52.19 124.59 52.12 122.25 52.03 119.84 C51.89 107.41 56.47 95.79 65.02 86.75 C72.74 79.92 81.64 76.39 91.96 76.76 C97.85 77.46 102.44 78.91 106.44 83.44 C111.93 90.43 111.82 97.41 111 106 C108.61 114.68 102.44 120.6 94.96 125.28 C89.53 128.15 83.19 131 77 131 C81.42 135.66 84.05 137.16 90.44 137.44 C96.78 137.43 101.07 135.43 106.5 132.31 C109 131 109 131 112 131 C112 130.34 112 129.68 112 129 C113.12 128.39 114.24 127.78 115.39 127.16 C117.99 125.37 118.87 124.42 119.79 121.37 C120.23 118.08 120.49 114.81 120.69 111.5 C120.89 109.15 121.1 106.81 121.32 104.46 C121.43 103.34 121.53 102.22 121.64 101.07 C122.48 93.96 124.68 87.34 128 81 C128.66 81 129.32 81 130 81 C130 80.34 130 79.68 130 79 C134.82 77.43 138.86 76.51 144 77 C145.71 78.27 145.71 78.27 147 80 C148.03 88.83 144.01 99.42 142 108 C142.4 107.26 142.8 106.52 143.21 105.76 C150.18 93.34 157.69 81.71 171.87 77.5 C177.5 76.17 181.08 76.98 186 80 C189.38 85.06 188.48 91.09 187.51 96.96 C187.14 98.82 186.76 100.68 186.38 102.54 C185.92 105.55 186.21 108.07 187 111 C190.47 110.5 190.47 110.5 194 110 C194.24 109.06 194.48 108.11 194.73 107.14 C200.82 83.71 200.82 83.71 205 79 C210.29 76.59 215.46 76.15 221 78 C223.29 81.99 223.01 84.56 221.92 88.93 C221.65 90.06 221.37 91.18 221.09 92.34 C220.79 93.51 220.49 94.67 220.19 95.88 C217.94 104.98 215.84 113.5 215.94 122.94 C215.95 124.65 215.95 124.65 215.96 126.4 C215.98 127.26 215.99 128.12 216 129 C219.36 128.72 220.68 128.35 222.99 125.82 C229.91 116.13 233.17 104.13 236.76 92.9 C237.37 90.99 238 89.09 238.63 87.18 C239.17 85.5 239.17 85.5 239.72 83.8 C241.11 80.76 242.14 79.65 245 78 C248.59 76.8 251.23 76.67 255 77 C257.23 78.71 257.23 78.71 259 81 C259.28 83.33 259.28 83.33 258.94 86.03 C258.75 87.62 258.75 87.62 258.56 89.24 C258.37 90.48 258.19 91.72 258 93 C257.84 94.08 257.84 94.08 257.68 95.17 C256.82 100.98 255.89 106.77 254.94 112.56 C254.51 115.16 254.09 117.76 253.67 120.36 C253.41 121.96 253.15 123.57 252.89 125.17 C252.41 128.15 252 130.98 252 134 C252.8 133.4 253.59 132.79 254.41 132.17 C255.48 131.36 256.55 130.56 257.62 129.75 C259.19 128.57 259.19 128.57 260.79 127.36 C263.8 125.14 266.88 123.06 270 121 C271.52 119.86 271.52 119.86 273.06 118.69 C276 117 276 117 278.69 116.94 C281.93 118.43 282.72 119.66 284 123 C284.29 127.43 284.15 129.61 281.3 133.05 C276.6 137.4 271.37 140.85 265.92 144.2 C260.85 147.32 255.94 150.68 251 154 C249.51 154.99 249.51 154.99 248 156 C247.13 158.41 247.13 158.41 246.61 161.29 C246.38 162.36 246.15 163.44 245.91 164.56 C245.67 165.71 245.43 166.87 245.19 168.06 C241.11 186.69 234.96 214.72 217.88 225.94 C212.18 229.31 206.51 229.55 200 229 C193.38 226.94 189.56 223.8 186.19 217.75 C183.03 207.79 185.96 198.79 190.44 189.69 C194.19 183.08 199.31 177.82 204.6 172.43 C205.77 171.23 206.92 170.01 208.06 168.79 C211.02 165.67 214.04 162.93 217.53 160.42 C225.8 154.94 225.8 154.94 229.88 146.31 C230.09 143.92 230.09 143.92 230 142 C228.67 143.26 228.67 143.26 226.88 146.25 C223.48 151 219.65 154.15 214.06 155.94 C208.39 156.05 204.48 155.38 200.25 151.44 C195.45 144.76 193.52 138.13 193 130 C192.2 130.33 191.39 130.66 190.56 131 C183.44 133 177.56 132.66 171 129 C167.46 126.01 165.13 123.53 164 119 C163.64 113.89 163.97 109.02 165 104 C153.18 110.38 149.14 124.93 145.43 137.05 C145.17 137.9 144.91 138.75 144.64 139.63 C144.14 141.3 143.65 142.98 143.18 144.65 C141.89 149.01 140.89 152.29 137 155 C133.59 155.8 130.43 155.65 127 155 C123.07 152.14 121.67 149.44 120 145 C119.48 145.39 118.96 145.77 118.42 146.17 C107.01 154.25 95.39 157.05 81.5 155.44 C73.74 154.07 65.36 151.03 60 145 C56.4 146.34 53.26 147.96 50 150 C41.41 155.37 33.9 155.92 24 155 C16.44 152.83 12.28 147.31 8 141 C7.41 141.59 6.81 142.18 6.2 142.79 C-1.84 150.45 -10.54 156.25 -22 156 C-30.4 155.74 -35.03 153.01 -41.1 147.29 C-42.94 145.07 -43.63 143.81 -44 141 C-46.65 142.08 -48.2 143.2 -50.25 145.25 C-56.37 151.37 -62.01 155.8 -71 156 C-76.73 155.02 -80.18 152.35 -84 148 C-84.76 147.24 -85.53 146.47 -86.31 145.69 C-86.87 145.13 -87.43 144.57 -88 144 C-88.35 144.46 -88.7 144.92 -89.07 145.39 C-93.64 151.08 -97.57 154.23 -104.88 155.88 C-110.79 156.35 -115.98 155.01 -121.25 152.38 C-124.74 149.36 -126.8 146.01 -129 142 C-131.29 143.12 -133.45 144.28 -135.62 145.62 C-138 147 -138 147 -140 147 C-140 147.66 -140 148.32 -140 149 C-142.73 150.81 -145.56 152.42 -148.4 154.05 C-152.92 157.44 -153.2 161.61 -154.19 166.98 C-155.82 175.74 -158.14 184.16 -160.94 192.62 C-161.26 193.62 -161.58 194.61 -161.92 195.64 C-164.96 204.59 -169.14 212.56 -175 220 C-175.66 220 -176.32 220 -177 220 C-177.33 220.99 -177.66 221.98 -178 223 C-179.49 224.35 -179.49 224.35 -181.31 225.62 C-181.91 226.05 -182.5 226.48 -183.11 226.91 C-188.57 230.05 -196.11 229.92 -202.1 228.5 C-206.3 226.87 -209.22 224.5 -212 221 C-215.59 211.94 -214.26 202.95 -211 194 C-207.48 187.2 -203.56 181.32 -198 176 C-197.06 175.04 -196.11 174.07 -195.18 173.11 C-194.22 172.13 -193.27 171.16 -192.31 170.19 C-191.83 169.69 -191.34 169.18 -190.84 168.67 C-189.6 167.41 -188.3 166.2 -187 165 C-186.34 165 -185.68 165 -185 165 C-184.67 164.01 -184.34 163.02 -184 162 C-182.39 160.58 -180.71 159.24 -179 157.94 C-175.46 155.42 -175.46 155.42 -173 152 C-173.85 152.47 -174.69 152.95 -175.56 153.44 C-181.41 156.1 -186.55 156.49 -192.73 154.92 C-199.57 152.16 -203.98 146.52 -207 140 C-210.65 125.55 -207.44 111.44 -200.14 98.77 C-192.65 87.9 -183.08 79.75 -170 77 C-162.2 76.12 -162.2 76.12 -158.44 78.88 C-157 81 -157 81 -157 83 C-155.75 82.97 -155.75 82.97 -154.48 82.93 C-153.39 82.91 -152.31 82.89 -151.19 82.88 C-150.11 82.85 -149.03 82.83 -147.92 82.8 C-145 83 -145 83 -142 85 C-140.81 88.71 -141.06 91.74 -141.67 95.54 C-141.92 97.14 -141.92 97.14 -142.18 98.77 C-142.37 99.9 -142.56 101.03 -142.75 102.19 C-143.03 103.92 -143.03 103.92 -143.31 105.68 C-143.86 109.12 -144.43 112.56 -145 116 C-145.31 117.9 -145.63 119.81 -145.94 121.71 C-146.61 125.81 -147.3 129.91 -148 134 C-145.08 132.69 -143.2 131.3 -141 129 C-139.67 127.91 -138.31 126.85 -136.94 125.81 C-136.25 125.28 -135.55 124.75 -134.84 124.21 C-133 123 -133 123 -131 123 C-130.94 122.3 -130.87 121.59 -130.81 120.87 C-128.98 106.14 -121.82 94.44 -110.55 84.94 C-102.94 79.21 -95.42 76.65 -85.91 76.7 C-84 77 -84 77 -81 79 C-80.67 79.99 -80.34 80.98 -80 82 C-78.77 82.06 -78.77 82.06 -77.52 82.11 C-76.44 82.18 -75.36 82.24 -74.25 82.31 C-73.18 82.37 -72.12 82.43 -71.02 82.49 C-67.73 83.05 -66.22 83.5 -64 86 C-63.72 88.54 -63.72 88.54 -64.06 91.62 C-64.19 92.79 -64.32 93.95 -64.45 95.14 C-65.13 99.94 -65.95 104.7 -66.83 109.46 C-67.77 114.58 -68.58 119.71 -69.25 124.88 C-69.42 126.17 -69.59 127.47 -69.77 128.8 C-70.21 132.02 -70.21 132.02 -69 135 C-62.85 134.63 -60.27 133.17 -56 129 C-55.67 128.34 -55.34 127.68 -55 127 C-54.34 127 -53.68 127 -53 127 C-51.01 123.69 -50.8 121.33 -50.95 117.5 C-50.97 116.4 -51 115.3 -51.03 114.17 C-51.06 112.98 -51.09 111.79 -51.12 110.56 C-51.44 85.97 -48.34 58.99 -39 36 C-38.74 35.36 -38.48 34.72 -38.22 34.05 C-28.49 10.24 -28.49 10.24 -18 3 C-16.67 2.07 -16.67 2.07 -15.31 1.12 C-10.18 -0.62 -5.35 -0.88 0 0 Z M-11 17 C-14.46 22.15 -17.1 27.09 -19 33 C-19.25 33.77 -19.5 34.54 -19.75 35.33 C-24.63 51.04 -27.24 67.05 -28.88 83.38 C-28.94 84.04 -29.01 84.71 -29.08 85.4 C-30.26 92.37 -30.26 92.37 -29 99 C-23.39 89.88 -18.92 81.05 -15.16 71.02 C-14.32 68.84 -13.4 66.69 -12.44 64.56 C-6.69 50.31 -2.54 33.1 -7 18 C-8.32 17.67 -9.64 17.34 -11 17 Z M40.62 19.12 C26.27 37.73 22.51 76.53 24 99 C27.85 94.68 30.11 90.01 32.5 84.81 C32.9 83.96 33.29 83.11 33.7 82.23 C41.48 65.4 48.21 47.63 48.31 28.88 C48.32 27.79 48.32 27.79 48.33 26.68 C48.28 22.98 48.05 20.15 46 17 C42.84 16.67 42.84 16.67 40.62 19.12 Z M-177.56 101.44 C-184.81 110.17 -186.55 119.81 -186.57 130.79 C-185.91 134.53 -185 135.74 -182 138 C-178.75 138.67 -177.35 138.19 -174.44 136.62 C-168.19 129.9 -166.9 119.92 -165.25 111.19 C-165.03 110.08 -164.81 108.98 -164.58 107.84 C-163.67 103.15 -162.87 98.79 -163 94 C-169.46 93.24 -173.33 97.1 -177.56 101.44 Z M-103.23 104.69 C-108.28 111.29 -109.16 118.43 -109.31 126.56 C-109.35 127.86 -109.39 129.16 -109.43 130.5 C-109.3 134.04 -109.3 134.04 -107.13 136.43 C-105.1 138.13 -105.1 138.13 -102.62 138.62 C-98.52 137.65 -96.32 135.37 -94 132 C-88.78 121.22 -85.75 106 -86 94 C-93.87 93.07 -98.54 99.23 -103.23 104.69 Z M78 99 C74.32 105.03 73.56 110.02 74 117 C80.51 115.94 86 113.15 90.5 108.31 C93.09 104.32 93.26 101.8 93 97 C91.02 94.59 91.02 94.59 87.19 94.62 C82.91 94.77 80.9 95.7 78 99 Z M-176 174 C-180.51 177.55 -184.66 181.29 -188 186 C-188 186.66 -188 187.32 -188 188 C-188.66 188 -189.32 188 -190 188 C-195.78 197.33 -195.78 197.33 -197 208 C-196.07 210.2 -196.07 210.2 -195 212 C-192.2 212.29 -192.2 212.29 -189 211 C-181.44 201.79 -177.43 188.45 -175 177 C-175.33 176.01 -175.66 175.02 -176 174 Z M223 174 C223 174.66 223 175.32 223 176 C222.4 176.26 221.81 176.52 221.19 176.79 C218.84 178.09 217.62 179.35 215.94 181.44 C214.51 183.19 213.14 184.87 211.51 186.43 C206.28 191.87 202.39 199.41 202 207 C202.71 209.96 202.71 209.96 204 212 C206.99 212 209.17 211.68 211.52 209.75 C219.48 200.32 222.42 185.75 225 174 C224.34 174 223.68 174 223 174 Z " fill="#AB562B" transform="translate(995,525)"/>
<path d="M0 0 C0.72 0.01 1.43 0.01 2.17 0.02 C27.81 0.27 49.01 8.87 67.69 26.56 C68.69 27.47 68.69 27.47 69.72 28.39 C77.49 35.67 83.4 44.46 88.25 53.88 C88.77 54.86 88.77 54.86 89.3 55.87 C89.62 56.51 89.93 57.14 90.25 57.8 C90.53 58.36 90.81 58.92 91.1 59.49 C92.77 65.35 91.44 70.01 89.02 75.41 C88.6 76.35 88.6 76.35 88.18 77.3 C87.6 78.6 87.01 79.91 86.41 81.21 C85.5 83.18 84.62 85.17 83.75 87.16 C83.17 88.43 82.6 89.7 82.02 90.98 C81.5 92.12 80.98 93.26 80.45 94.44 C78.57 97.78 76.5 99.99 73.69 102.56 C72.84 103.41 72 104.25 71.12 105.12 C69.92 106.33 69.92 106.33 68.69 107.56 C67.99 108.33 67.28 109.09 66.56 109.88 C64.69 111.56 64.69 111.56 61.69 111.56 C60 110.06 60 110.06 58.69 108.56 C58.42 109.14 58.15 109.72 57.87 110.32 C56.67 112.59 55.32 114.48 53.75 116.5 C51.52 119.42 49.49 122.35 47.69 125.56 C48.68 126.55 49.67 127.54 50.69 128.56 C55.04 127.09 58.41 124.73 62 121.94 C62.55 121.52 63.1 121.1 63.67 120.66 C65.01 119.64 66.35 118.6 67.69 117.56 C67.35 116.66 67.35 116.66 67.01 115.74 C66.91 115.02 66.8 114.3 66.69 113.56 C68.88 111.35 71.09 109.34 73.44 107.31 C82.8 98.74 87.07 88.31 91.58 76.64 C92.69 74.56 92.69 74.56 95.69 73.56 C101.38 100.48 97.35 127.44 82.85 150.79 C80.11 154.98 76.96 158.78 73.69 162.56 C72.9 163.59 72.12 164.62 71.31 165.69 C55.4 183.12 31.03 194.53 7.49 195.67 C-21.24 196.44 -46.27 188.32 -67.51 168.64 C-86.33 150.69 -96.89 127.29 -98.52 101.32 C-98.91 74.51 -89.26 48.95 -70.62 29.52 C-62.47 21.25 -53.66 14.84 -43.31 9.56 C-42.51 9.14 -41.7 8.72 -40.87 8.29 C-27.75 1.84 -14.41 -0.19 0 0 Z M-32.07 71.45 C-40.53 82.6 -41.94 93.84 -40.31 107.56 C-39.24 111.73 -37.69 114.99 -35.31 118.56 C-34.78 119.37 -34.25 120.18 -33.7 121.01 C-29.96 126.22 -25.8 130.24 -20.31 133.56 C-19.64 133.98 -18.97 134.39 -18.29 134.82 C-9.45 139.27 3.54 139.18 13.01 136.69 C24.2 131.98 32.5 125.46 37.77 114.27 C41.61 104.21 42.31 93.16 38.74 82.88 C36.87 78.76 34.41 75.15 31.69 71.56 C30.8 70.33 30.8 70.33 29.9 69.07 C27.29 66.12 24.61 64.35 21.25 62.31 C20.14 61.63 19.03 60.94 17.88 60.23 C1.14 51.46 -19.89 58.38 -32.07 71.45 Z " fill="#AC562A" transform="translate(99.3125,517.4375)"/>
<path d="M0 0 C1.98 2.05 3 3.11 3 6 C3.83 5.97 4.66 5.93 5.52 5.89 C7.15 5.85 7.15 5.85 8.81 5.81 C9.89 5.78 10.97 5.74 12.08 5.71 C15 6 15 6 16.67 7.27 C19.86 11.41 18.03 18.23 17.41 23.12 C17.16 24.89 16.89 26.67 16.62 28.44 C16.44 29.75 16.44 29.75 16.24 31.1 C15.47 36.31 14.52 41.45 13.45 46.61 C12.8 50.06 12.39 53.51 12 57 C14.25 55.4 16.5 53.79 18.75 52.19 C19.38 51.74 20.02 51.28 20.67 50.82 C21.91 49.94 23.14 49.05 24.36 48.15 C26 47 26 47 28.36 45.75 C31.19 42.73 31.06 38.81 31.5 34.81 C32.37 28.18 33.33 21.64 34.88 15.12 C35.16 13.89 35.45 12.66 35.74 11.38 C37.57 6.47 40.02 2.95 44.88 0.62 C48.38 -0.08 51.44 -0.27 55 0 C55.99 0.66 56.98 1.32 58 2 C58.86 9.28 56.93 15.63 54.88 22.55 C54.11 25.56 53.81 27.92 54 31 C54.41 30.14 54.82 29.28 55.24 28.4 C61.34 16.61 69.53 5.09 82.51 0.56 C88.03 -0.68 92.14 -0.03 97.06 2.69 C101.62 10.48 98.98 21.76 98.22 30.45 C97.97 32.91 97.97 32.91 98 35 C100.48 34.5 100.48 34.5 103 34 C103.21 33.18 103.42 32.36 103.63 31.51 C107.08 19.01 112.85 9.97 124 3 C132.96 -1.14 142.37 -1.13 151.66 1.94 C155.33 3.6 158.4 5.91 161 9 C161 9.66 161 10.32 161 11 C161.66 11 162.32 11 163 11 C166.3 17.17 169 22.85 169 30 C169.99 29.67 170.98 29.34 172 29 C174.33 28.96 176.67 28.96 179 29 C179.04 28.22 179.08 27.43 179.12 26.62 C181.28 17.71 186.83 11.42 194 6 C194.99 5.24 195.98 4.47 197 3.69 C204.66 -0.62 213.35 -1.15 221.87 0.58 C229.24 2.82 233.76 6.6 238 13 C240.87 18.48 242.47 23.85 243 30 C248.44 29.01 248.44 29.01 254 28 C254.04 26.54 254.07 25.08 254.11 23.58 C254.18 21.66 254.25 19.74 254.31 17.81 C254.34 16.85 254.36 15.89 254.38 14.9 C254.72 5.91 254.72 5.91 258 2 C261.93 -0.29 265.52 -0.33 270 0 C273.38 1.19 273.93 1.9 276 5 C276.31 7.04 276.31 7.04 276.39 9.41 C276.43 10.3 276.47 11.18 276.51 12.1 C276.55 13.53 276.55 13.53 276.6 15 C276.64 15.98 276.68 16.97 276.72 17.98 C276.84 21.13 276.95 24.29 277.06 27.44 C277.18 30.59 277.3 33.73 277.42 36.88 C277.5 38.84 277.57 40.8 277.63 42.76 C277.67 43.65 277.7 44.54 277.73 45.46 C277.78 46.63 277.78 46.63 277.82 47.83 C278 49.98 278.42 51.92 279 54 C281.37 50.35 283.69 46.68 286 43 C286.54 42.17 287.09 41.33 287.65 40.48 C290.55 36.05 290.55 36.05 290.31 31 C289.88 30.01 289.45 29.02 289 28 C287.81 19.84 290.55 13.02 294.75 6.12 C298.88 2.22 303.05 0.23 308.69 -0.44 C312.27 0.04 314.16 0.81 317 3 C320.5 8.25 320.49 14.27 319.39 20.39 C318.66 23.29 317.88 26.15 317 29 C322.44 28.5 322.44 28.5 328 28 C328.35 26.87 328.7 25.73 329.06 24.56 C332.14 16.42 338.66 8.68 346 4 C355.63 -0.08 364.04 -1.6 373.96 2.1 C379.09 4.37 381.98 7.58 384.27 12.6 C386.58 20.19 385.46 27.72 382.18 34.82 C376.49 45.3 364.94 50.38 354 54 C352.68 54 351.36 54 350 54 C353.43 57.81 356.42 59.66 361.54 60.34 C372.18 60.49 380.78 56.66 389 50 C391.62 47.38 394.16 44.72 396.64 41.98 C399 40 399 40 401.68 39.58 C404 40 404 40 405.81 42.06 C407.72 46.78 407.39 50.42 406.19 55.31 C400.94 66.05 387.89 73.21 377 77 C365.52 80.12 352.25 80.15 341.7 74.12 C333.28 68.56 328.24 61.85 326 52 C326 50.68 326 49.36 326 48 C325.41 48.08 324.81 48.17 324.2 48.25 C317.64 49.06 311.55 48.81 305 48 C304.59 48.67 304.17 49.33 303.75 50.02 C288.12 74.96 288.12 74.96 279 78 C273.39 78.57 268.61 78.8 263.5 76.25 C256.58 68.98 256.06 56.42 255 47 C250.47 47.14 246.3 47.52 242 49 C239.69 52.05 239.01 55.35 238 59 C233.88 67.63 227.08 73.77 218.21 77.28 C210.72 79.72 203.51 79.29 196 77 C186.93 72.16 181.27 65.72 178 56 C177.45 52.97 177.2 50.08 177 47 C173.69 47.09 170.97 47.48 168 49 C165.97 52.49 165.07 56.13 164 60 C160.61 67.8 152.72 73.5 145.23 77.16 C141.52 78.56 138 78.64 134.06 78.56 C133.27 78.55 132.48 78.54 131.66 78.53 C125.4 78.3 120.86 77.13 116 73 C115.36 72.47 114.72 71.94 114.05 71.39 C109.75 67.47 107.3 63.29 105 58 C104.34 56.66 103.67 55.33 103 54 C102.04 54.25 102.04 54.25 101.06 54.5 C93.42 55.75 87.56 55.44 81 51 C77.46 47.84 76.19 44.6 75.84 39.82 C75.78 35.44 76.12 31.3 77 27 C71.32 28.74 69.09 32.08 66.22 37.13 C61.92 45.71 58.6 54.19 56.05 63.46 C52.87 74.67 52.87 74.67 48 78 C44.47 79.49 43.07 79.02 39.38 77.81 C35.38 75.67 33.7 74.31 32.38 69.96 C31.87 67.99 31.43 65.99 31 64 C28.95 65.33 26.92 66.69 24.91 68.09 C22 70 22 70 18.46 71.82 C13.52 74.52 9.21 77.13 6.95 82.5 C5.25 88.35 4.32 94.34 3.42 100.36 C2.55 105.77 0.86 110.86 -1 116 C-1.36 116.99 -1.36 116.99 -1.73 118.01 C-6.61 131.27 -12.45 143.57 -25.19 150.81 C-31.94 152.92 -38.53 153.02 -45 150 C-49.29 147.17 -52.38 143.92 -54 139 C-55.74 127.09 -52.01 116.91 -45.19 107.25 C-43.81 105.48 -42.42 103.73 -41 102 C-40.06 100.83 -40.06 100.83 -39.09 99.63 C-34.78 94.53 -29.99 90.36 -24.76 86.21 C-21.31 83.45 -18.04 80.51 -14.78 77.53 C-13 76 -13 76 -11 75 C-11.33 74.67 -11.66 74.34 -12 74 C-12.89 74.66 -13.77 75.32 -14.69 76 C-20.14 79.08 -25.94 78.83 -32 78 C-38.07 76.07 -42.04 72.75 -45.07 67.16 C-50.14 55.36 -48.61 41.83 -44.38 30 C-40.97 22.02 -35.87 15.25 -29 10 C-28.4 9.34 -27.8 8.68 -27.19 8 C-24.13 5.21 -20.76 3.66 -17 2 C-15.61 1.38 -15.61 1.38 -14.19 0.75 C-9.55 -0.34 -4.72 -0.87 0 0 Z M-15.02 21.89 C-24.05 31.5 -26.1 40.38 -26.13 53.29 C-26.12 56.1 -26.12 56.1 -25 59 C-21.73 61.18 -20.79 61.63 -17 61 C-11.15 56.13 -8.78 51.22 -7.39 43.84 C-7.27 43.16 -7.14 42.49 -7 41.79 C-6.73 40.38 -6.47 38.96 -6.21 37.54 C-5.81 35.37 -5.4 33.21 -4.99 31.04 C-3.55 24.07 -3.55 24.07 -3 17 C-8.28 17 -11.13 18.26 -15.02 21.89 Z M355 19 C349.94 24.06 346.84 29.72 346.81 37 C346.87 37.99 346.94 38.98 347 40 C355.09 38.97 359.46 35.94 365 30 C366.6 26.81 366.66 23.45 366 20 C361.69 16.46 359.84 16.58 355 19 Z M130 22 C125.36 28.26 124.82 34.35 124.81 42 C124.8 42.7 124.79 43.4 124.78 44.12 C124.76 49.41 125.51 53.02 128.69 57.25 C131.85 59.64 134.06 59.93 138 60 C142.62 58.71 144.53 56.6 146.94 52.62 C148.44 49.95 149.04 48.54 148.81 45.46 C147.93 42.79 146.86 41.21 145.06 39.06 C140.19 32.8 139.58 26.73 139 19 C134.59 19 133.41 19.35 130 22 Z M201.25 26.12 C198.23 30.65 198.74 35.59 198.69 40.81 C198.66 41.7 198.63 42.59 198.6 43.51 C198.54 49.21 199.15 52.5 203 57 C206.06 59.57 207.48 60 211.5 60 C216.84 58.47 219 55.61 221.88 51 C223.19 47.5 223.4 46.45 222 43 C221.06 41.82 220.1 40.66 219.12 39.5 C214.58 33.79 213 26.22 213 19 C206.97 18.14 204.81 21.8 201.25 26.12 Z M-16 97 C-30.19 109.88 -30.19 109.88 -37.27 127.17 C-37.4 131.55 -37.4 131.55 -35 135 C-31.48 135 -30.16 134.14 -27.56 131.75 C-20.76 122.75 -17 111.01 -15 100 C-15.33 99.01 -15.66 98.02 -16 97 Z " fill="#AB562B" transform="translate(353,602)"/>
<path d="M0 0 C13.59 -0.14 27.17 -0.25 40.76 -0.31 C47.07 -0.34 53.38 -0.38 59.69 -0.45 C65.77 -0.52 71.86 -0.55 77.95 -0.57 C80.27 -0.58 82.6 -0.6 84.92 -0.63 C88.17 -0.68 91.43 -0.68 94.68 -0.68 C96.12 -0.71 96.12 -0.71 97.59 -0.75 C102.22 -0.7 105.13 -0.46 108.58 2.79 C112.74 7.43 112.15 12.99 112.14 18.91 C112.14 19.82 112.15 20.73 112.15 21.66 C112.16 24.72 112.16 27.77 112.16 30.83 C112.17 33.02 112.17 35.21 112.18 37.39 C112.19 43.34 112.2 49.29 112.2 55.24 C112.2 58.95 112.21 62.67 112.21 66.38 C112.23 78.67 112.24 90.95 112.24 103.24 C112.24 104.23 112.24 104.23 112.24 105.25 C112.24 106.24 112.24 106.24 112.24 107.26 C112.24 118 112.26 128.75 112.29 139.5 C112.31 150.53 112.32 161.57 112.32 172.6 C112.32 178.8 112.33 184.99 112.35 191.19 C112.36 197.02 112.37 202.84 112.36 208.67 C112.36 210.81 112.36 212.94 112.37 215.08 C112.38 218 112.38 220.92 112.37 223.84 C112.38 225.11 112.38 225.11 112.39 226.41 C112.34 232.6 111.14 236.62 106.89 241.34 C102.8 243.69 99.38 243.56 94.74 243.51 C93.8 243.52 92.87 243.53 91.9 243.54 C88.76 243.55 85.63 243.54 82.49 243.53 C80.24 243.54 77.99 243.55 75.74 243.56 C69.63 243.58 63.53 243.58 57.42 243.57 C52.32 243.57 47.22 243.57 42.12 243.58 C29.41 243.6 16.71 243.59 4 243.57 C-7.04 243.56 -18.08 243.57 -29.12 243.6 C-40.45 243.63 -51.79 243.64 -63.12 243.63 C-69.49 243.63 -75.85 243.63 -82.21 243.65 C-88.2 243.67 -94.18 243.66 -100.16 243.64 C-102.36 243.63 -104.55 243.64 -106.75 243.65 C-109.75 243.67 -112.74 243.65 -115.74 243.63 C-116.61 243.64 -117.48 243.65 -118.38 243.66 C-122.74 243.6 -124.45 243.44 -127.97 240.63 C-132.84 234.33 -133.43 229.59 -133.34 221.86 C-133.34 220.86 -133.34 219.85 -133.34 218.82 C-133.34 215.51 -133.32 212.19 -133.29 208.88 C-133.29 206.58 -133.28 204.28 -133.28 201.98 C-133.27 195.93 -133.24 189.89 -133.21 183.84 C-133.18 177.67 -133.16 171.49 -133.15 165.32 C-133.11 153.21 -133.06 141.11 -133 129 C-132.01 129.33 -131.02 129.66 -130 130 C-129.25 131.86 -128.52 133.74 -127.87 135.63 C-119.45 158.62 -101.03 177.67 -79 188 C-68.84 192.67 -59.06 195.39 -48 197 C-47.12 197.13 -46.25 197.26 -45.34 197.4 C-43.23 197.67 -41.13 197.86 -39 198 C-38.31 198.05 -37.62 198.11 -36.91 198.16 C-10.78 199.19 16.12 188.27 35.21 170.76 C55 151.32 66.14 125.43 66.44 97.75 C66.44 88.27 65.29 79.66 62.78 70.55 C61.39 64.21 63.86 59.55 66.38 53.81 C66.68 53.09 66.98 52.36 67.3 51.62 C68.85 48.04 69.69 46.21 73 44 C74.92 43.85 74.92 43.85 76.88 43.69 C80.06 43.32 81.13 42.92 83.94 41.06 C86.81 36.8 87.26 33.09 87 28 C85.73 23.64 84.7 22.42 80.81 20.06 C76.08 18.74 73.76 18.85 69 20 C66.24 21.82 64.48 23.04 63 26 C62.25 32.81 63.02 36.35 67 42 C67.14 47.99 63.55 53.71 61 59 C60.34 59 59.68 59 59 59 C58.78 58.47 58.56 57.93 58.34 57.38 C54.18 47.62 48.86 39.5 41.95 31.45 C40 29 40 29 38.98 26.8 C37.71 24.46 36.4 24.08 34 23 C32.83 21.99 31.68 20.95 30.56 19.88 C21.62 11.91 10.91 6.71 0 2 C0 1.34 0 0.68 0 0 Z M61.62 195.25 C57.11 200.73 55.53 205.74 55.75 212.89 C56.57 219.82 59.04 225.15 64 230 C70.15 234.4 76.49 235.9 84 235 C91.64 233.12 96.75 229.63 101 223 C104.22 216.81 104.83 210.74 103 204 C99.99 196.87 96.06 192.24 89 189 C78.89 185.63 68.86 187.63 61.62 195.25 Z M-118.94 218.94 C-121.34 222.51 -121.8 224.66 -121.55 228.9 C-121.1 231.33 -121.1 231.33 -118.44 233.62 C-114.3 235.28 -112.25 235.26 -108 234 C-105.42 232.58 -105.42 232.58 -104 230 C-103.29 225.03 -103.21 223.15 -106.06 219 C-110.81 215.77 -114.15 215.78 -118.94 218.94 Z M-91 220 C-92.55 223.8 -93.31 225.96 -92.12 229.94 C-91.75 230.62 -91.38 231.3 -91 232 C-90.34 232 -89.68 232 -89 232 C-89 232.66 -89 233.32 -89 234 C-82.77 235.33 -82.77 235.33 -77 233.19 C-74.66 230.62 -74.07 229.64 -73.69 226.19 C-74.07 222.27 -75.29 220.79 -78 218 C-82.53 215.74 -87.65 216.15 -91 220 Z M-62 221 C-63.39 223.78 -63.18 225.92 -63 229 C-62.14 231.59 -61.47 232.67 -59.25 234.25 C-56.26 235.25 -54.13 235.38 -51 235 C-48.3 233.2 -46.46 231.92 -45 229 C-44.57 225.13 -44.68 223.48 -46.88 220.19 C-49.38 217.61 -50.25 217.08 -53.81 216.69 C-57.73 217.07 -59.21 218.29 -62 221 Z " fill="#AB562B" transform="translate(134,518)"/>
<path d="M0 0 C7.02 6.07 10.27 12.34 11.27 21.5 C11.62 29.97 9.85 37.2 4.44 43.81 C-2.25 50.69 -9.48 53.72 -19.05 54.13 C-28.28 53.73 -35.02 49.91 -41.5 43.52 C-47.83 36.48 -48.81 29.18 -48.47 20.02 C-47.81 12.16 -43.7 6.28 -38.06 1 C-26.83 -7.96 -11.77 -8.29 0 0 Z M-21 20 C-21.66 20.66 -22.32 21.32 -23 22 C-22.71 25.31 -22.71 25.31 -21 28 C-18.5 28.17 -18.5 28.17 -16 28 C-14.64 26.87 -14.64 26.87 -14.94 23.94 C-14.96 22.97 -14.98 22 -15 21 C-17.9 20.32 -17.9 20.32 -21 20 Z " fill="#AC562B" transform="translate(118,591)"/>
<path d="M0 0 C1.12 0 2.24 0 3.4 0 C4.6 0.02 5.81 0.03 7.05 0.05 C8.28 0.05 9.52 0.06 10.8 0.06 C14.08 0.07 17.36 0.1 20.64 0.13 C23.99 0.17 27.34 0.18 30.69 0.19 C37.26 0.23 43.84 0.28 50.41 0.34 C50.41 1 50.41 1.66 50.41 2.34 C49.72 2.59 49.04 2.83 48.34 3.08 C35.95 7.86 16.67 16.81 10.41 29.34 C9.75 29.34 9.09 29.34 8.41 29.34 C8.14 29.92 7.87 30.51 7.6 31.11 C6.37 33.41 4.98 35.12 3.28 37.09 C-3.33 45.42 -7.49 55.59 -11.59 65.34 C-12.25 65.34 -12.91 65.34 -13.59 65.34 C-13.7 57.8 -13.77 50.25 -13.81 42.71 C-13.83 40.14 -13.86 37.58 -13.9 35.02 C-13.95 31.32 -13.97 27.63 -13.99 23.93 C-14.01 22.79 -14.03 21.65 -14.05 20.48 C-14.05 14.05 -13.68 8.56 -9.59 3.34 C-6.44 0.36 -4.29 -0.03 0 0 Z " fill="#AC562A" transform="translate(14.5947265625,517.659423828125)"/>
<path d="M0 0 C4.73 3.32 8.67 7.13 10.23 12.85 C11.4 19.89 9.64 25.62 5.92 31.6 C1.03 36.36 -2.57 38.04 -9.33 38.29 C-16.47 38.02 -19.94 36.12 -25.08 31.1 C-28.35 26.78 -30.45 21.93 -30.24 16.46 C-29.09 10 -26.5 5.1 -21.17 1.21 C-14.24 -2.79 -7.29 -3.79 0 0 Z " fill="#AB562B" transform="translate(223.33203125,711.2109375)"/>
</svg>
